/* XPM */
static char *clash_update_devFrm_WxToolButton2_XPM[]={
/* clash_update_devFrm_WxToolButton2 */
"16 15 50 1",
"      c None",
"0     c #3366BB",
"1     c #2A5398",
"2     c #4377CD",
"3     c #CCDAF2",
"4     c #BED0EE",
"5     c #B1C7EB",
"6     c #A8C0E8",
"7     c #9AB6E4",
"8     c #7CA0DC",
"9     c #89A9DF",
"a     c #D2DFF4",
"b     c #F7F9FD",
"c     c #5282D0",
"d     c #A6BFE8",
"e     c #2E5CA8",
"f     c #6992D7",
"g     c #7198D9",
"h     c #254A87",
"i     c #2D59A3",
"j     c #799EDB",
"k     c #638ED5",
"l     c #2A549A",
"m     c #95B2E3",
"n     c #9BB7E5",
"o     c #CBD9F1",
"p     c #EDF2FB",
"q     c #2B559B",
"r     c #B8CCEC",
"s     c #2D5AA5",
"t     c #274D8D",
"u     c #DCE6F6",
"v     c #356AC1",
"w     c #C4D5F0",
"x     c #FFFFFF",
"y     c #366BC2",
"z     c #285092",
"A     c #487BCE",
"B     c #D9E4F5",
"C     c #376EC9",
"D     c #DFE8F7",
"E     c #ADC4E9",
"F     c #EAF0FA",
"G     c #E2EAF8",
"H     c #4E7FD0",
"I     c #8CACE0",
"J     c #F5F8FD",
"K     c #F0F5FC",
"L     c #FAFCFE",
"M     c #FDFEFF",
"   000000012    ",
"   0345678092   ",
"   0a345670b9c  ",
"  deeef6560bb9e ",
" ghijklhf50000e ",
"mh1nopnqh9r6790 ",
"sqqttudq1vwr670 ",
"hqq19xyqqz3wr60 ",
"hqqtxAqqqhB3wr0 ",
"hqq1hyqq1CDB3w0 ",
"gtqhxdqqhEFGB30 ",
" Hh1h11hIJKFGB0 ",
"  meeeHoLbJKFG0 ",
"   0xxxMMLbJKF0 ",
"   000000000000 "};

